<svg
	xmlns="http://www.w3.org/2000/svg" width="98" height="99" viewBox="0 0 98 99">
	<defs>
		<linearGradient id="bgGradient" >
			<stop offset='0%'  stop-color='#ff7b02'  />
			<stop offset='100%' stop-color='#ffcb52'  />
		</linearGradient>
	</defs>
	<g>
		<g>
			<path fill="#fff" d="M63.216 98.336c-1.278.183-13.326.016-14.216 0-.889.016-12.94.183-14.217 0-1.326-.192 0-1.322 1.68-2.639 1.681-1.316 1.857-3.296 1.857-3.296l.633-4.29h20.093l.63 4.293s.179 1.977 1.86 3.294c1.678 1.32 3.004 2.448 1.68 2.638zm-36.85-36.928c5.368-.044 6.036-1.422 7.785-7.162 3.228-9.059 17.76 2.372 8.754 6.339-9.006 3.97-21.908.868-16.54.823zM81.2 12.268L48.824 49.785c-2.719 3.594-2.091 3.432-4.696 1.197-2.604-2.234-2.618-1.548.101-5.14L71.77 4.172c2.72-3.593 7.034-4.694 9.64-2.459 2.604 2.235 2.51 6.96-.208 10.554zM78.548 2.201s-3.954-.642-5.965 2.857c1.341 1.143 1.744 1.642 1.744 1.642s.47-2.142 4.22-4.5zM97.5 19.927v59.92c0 2.282-1.737 4.132-3.88 4.132H4.379c-2.143 0-3.88-1.85-3.88-4.132v-59.92c0-2.282 1.737-4.133 3.88-4.133h55.697l-4.1 6.199H6.32v49.589h85.362V21.993h-15.52l5.348-6.199H93.62c2.143 0 3.88 1.85 3.88 4.133z"/>
		</g>
	</g>
</svg>